<svg xmlns="http://www.w3.org/2000/svg" xmlns:xlink="http://www.w3.org/1999/xlink" x="0" y="0" version="1.1" viewBox="0 0 260.4 71.4" xml:space="preserve" style="enable-background:new 0 0 260.4 71.4"><style type="text/css">.st0{fill:#fff}.st3{fill:#1b3663}.st4{fill:#00b1d1}.st5{fill:#bfe6ef}.st6{fill:#69cbe0}.st7{fill:#0080bd}.st8{fill:#005dab}.st14{fill:#c0e6ef}.st15{fill:none;stroke:#c0e6ef;stroke-width:1.2961;stroke-miterlimit:10}</style><g id="Layer_1"><g><g><g><path d="M96.7,27.6l0.1,1.8c1.1-1.4,2.6-2.1,4.4-2.1c1.9,0,3.2,0.9,4,2.6c1.1-1.7,2.6-2.6,4.7-2.6 c3.3,0,5,2.3,5.1,6.9v12.5h-5V34.4c0-1.1-0.2-1.9-0.5-2.4c-0.3-0.5-0.8-0.7-1.5-0.7c-0.9,0-1.6,0.6-2.1,1.7l0,0.6v12.9h-5V34.5 c0-1.1-0.1-1.9-0.4-2.4c-0.3-0.5-0.8-0.7-1.6-0.7c-0.9,0-1.5,0.5-2,1.4v13.8h-5v-19H96.7z" class="st0"/><path d="M118.5,36.5c0-3.1,0.6-5.4,1.7-7s2.7-2.3,4.7-2.3c1.7,0,3.1,0.7,4,2l0.2-1.7h4.5v19c0,2.4-0.7,4.3-2,5.6 c-1.4,1.3-3.3,1.9-5.9,1.9c-1,0-2.1-0.2-3.3-0.6s-2-0.9-2.6-1.6l1.7-3.4c0.5,0.5,1.1,0.9,1.8,1.2c0.7,0.3,1.5,0.5,2.1,0.5 c1.1,0,1.9-0.3,2.4-0.8s0.7-1.4,0.7-2.6v-1.6c-0.9,1.2-2.2,1.9-3.7,1.9c-2,0-3.6-0.8-4.7-2.4s-1.7-3.8-1.7-6.7V36.5z M123.5,37.7c0,1.8,0.2,3,0.7,3.8s1.2,1.2,2.2,1.2c1,0,1.8-0.4,2.3-1.1v-9.1c-0.5-0.8-1.3-1.2-2.2-1.2c-1,0-1.7,0.4-2.2,1.2 c-0.5,0.8-0.7,2.1-0.7,3.9V37.7z" class="st0"/><path d="M142.2,27.6l0.1,1.8c1.1-1.4,2.6-2.1,4.4-2.1c1.9,0,3.2,0.9,4,2.6c1.1-1.7,2.6-2.6,4.7-2.6 c3.3,0,5,2.3,5.1,6.9v12.5h-5V34.4c0-1.1-0.2-1.9-0.5-2.4c-0.3-0.5-0.8-0.7-1.5-0.7c-0.9,0-1.6,0.6-2.1,1.7l0,0.6v12.9h-5V34.5 c0-1.1-0.1-1.9-0.4-2.4c-0.3-0.5-0.8-0.7-1.6-0.7c-0.9,0-1.5,0.5-2,1.4v13.8h-5v-19H142.2z" class="st0"/><path d="M170.3,22.9v4.7h2.5v3.7h-2.5v9.5c0,0.8,0.1,1.3,0.3,1.5c0.2,0.3,0.6,0.4,1.2,0.4c0.5,0,0.9,0,1.2-0.1 l0,3.9c-0.8,0.3-1.8,0.5-2.7,0.5c-3.2,0-4.8-1.8-4.9-5.5V31.3h-2.2v-3.7h2.2v-4.7H170.3z" class="st0"/><path d="M182.7,45.1c1.4,0,2.4-0.4,3.1-1.1c0.7-0.8,1.1-1.9,1.2-3.3h1.9c-0.1,1.9-0.7,3.5-1.9,4.6s-2.6,1.7-4.3,1.7 c-2.3,0-4-0.7-5.1-2.2s-1.7-3.6-1.8-6.4V36c0-2.9,0.6-5.1,1.7-6.6s2.9-2.2,5.1-2.2c1.9,0,3.4,0.6,4.5,1.8s1.7,2.9,1.7,5H187 c-0.1-1.6-0.5-2.8-1.2-3.6s-1.8-1.3-3.1-1.3c-1.7,0-2.9,0.6-3.7,1.7s-1.2,2.9-1.2,5.2v2.2c0,2.4,0.4,4.2,1.2,5.3 S181,45.1,182.7,45.1z" class="st4"/><path d="M192.6,36.1c0-2.7,0.6-4.9,1.9-6.5s2.9-2.4,5.1-2.4c2.2,0,3.9,0.8,5.1,2.4c1.2,1.6,1.9,3.7,1.9,6.5v2 c0,2.8-0.6,5-1.9,6.5s-2.9,2.3-5.1,2.3s-3.8-0.8-5-2.3s-1.9-3.6-1.9-6.3V36.1z M194.6,38.1c0,2.2,0.4,3.9,1.3,5.2 c0.9,1.3,2.1,1.9,3.7,1.9c1.6,0,2.8-0.6,3.7-1.8c0.8-1.2,1.3-2.9,1.3-5.2v-2c0-2.2-0.4-3.9-1.3-5.2c-0.9-1.3-2.1-1.9-3.7-1.9 c-1.5,0-2.7,0.6-3.6,1.8c-0.9,1.2-1.3,2.9-1.4,5.1V38.1z" class="st4"/><path d="M213.2,27.6l0.1,3c0.6-1,1.3-1.9,2.2-2.5s1.9-0.9,3-0.9c3.3,0,5,2.2,5.1,6.6v12.7h-1.9V34.1 c0-1.7-0.3-3-0.9-3.8c-0.6-0.8-1.5-1.2-2.8-1.2c-1,0-1.9,0.4-2.8,1.2s-1.4,1.8-1.9,3.2v13.2h-2v-19H213.2z" class="st4"/><path d="M230.3,46.6V29.3h-2.6v-1.8h2.6v-2.5c0-1.9,0.5-3.3,1.3-4.3s2-1.5,3.5-1.5c0.7,0,1.3,0.1,1.9,0.3l-0.1,1.8 c-0.5-0.1-1-0.2-1.6-0.2c-0.9,0-1.7,0.4-2.2,1.1s-0.8,1.7-0.8,3v2.3h3.7v1.8h-3.7v17.3H230.3z" class="st4"/><path d="M240.1,22.1c0-0.4,0.1-0.7,0.3-1s0.5-0.4,0.9-0.4s0.7,0.1,1,0.4s0.3,0.6,0.3,1s-0.1,0.7-0.3,1 s-0.5,0.4-1,0.4s-0.7-0.1-0.9-0.4S240.1,22.5,240.1,22.1z M242.3,46.6h-2v-19h2V46.6z" class="st4"/><path d="M247.4,36.2c0-3,0.5-5.2,1.5-6.7s2.6-2.2,4.6-2.2c2.2,0,3.8,1,4.9,3l0.1-2.7h1.8v19.6c0,2.3-0.6,4-1.6,5.2 s-2.7,1.8-4.7,1.8c-1,0-2.1-0.3-3.2-0.8s-1.9-1.1-2.4-1.9l0.9-1.4c1.3,1.5,2.8,2.2,4.5,2.2c1.6,0,2.7-0.4,3.5-1.3 c0.7-0.8,1.1-2.1,1.1-3.8v-3c-1.1,1.8-2.7,2.7-4.9,2.7c-2,0-3.5-0.7-4.5-2.2s-1.6-3.6-1.6-6.5V36.2z M249.3,38 c0,2.4,0.4,4.2,1.1,5.4s1.9,1.7,3.5,1.7c2.1,0,3.6-1,4.5-3v-9.7c-0.9-2.2-2.4-3.3-4.4-3.3c-1.6,0-2.8,0.6-3.5,1.7 s-1.1,2.9-1.1,5.3V38z" class="st4"/></g></g><g><g><g><line x1="19.5" x2="34.7" y1="16" y2="28.5" class="st15"/><g><polygon points="18.4 18.5 16.6 13.7 21.7 14.5" class="st14"/></g></g></g><circle cx="10.8" cy="8.1" r="8.1" class="st3"/><g><g><line x1="34.7" x2="49.4" y1="28" y2="53.3" class="st15"/><g><polygon points="46.8 54 51.2 56.5 51.2 51.4" class="st14"/></g></g></g><g><g><line x1="46.2" x2="63.9" y1="31.1" y2="34.9" class="st15"/><g><polygon points="46.4 33.8 42.6 30.4 47.5 28.8" class="st14"/></g></g></g><g><g><line x1="34.7" x2="47.9" y1="28.5" y2="20.1" class="st15"/><g><polygon points="48.7 22.7 51.1 18.1 45.9 18.3" class="st14"/></g></g></g><g><g><line x1="11.2" x2="23.2" y1="33.1" y2="31" class="st15"/><g><polygon points="22.9 33.7 26.8 30.4 22 28.6" class="st14"/></g></g></g><g><g><line x1="61.5" x2="71.9" y1="53" y2="36.1" class="st15"/><g><polygon points="64.1 53.7 59.5 56.2 59.7 51" class="st14"/></g></g></g><g><g><line x1="64.8" x2="71.9" y1="24.4" y2="36.1" class="st15"/><g><polygon points="63 26.4 62.9 21.2 67.4 23.7" class="st14"/></g></g></g><circle cx="34.7" cy="28.5" r="8.1" class="st5"/><circle cx="8.1" cy="33.9" r="8.1" class="st4"/><circle cx="58.3" cy="14.5" r="8.1" class="st7"/><circle cx="55.7" cy="63.3" r="8.1" class="st8"/><circle cx="71.9" cy="36.1" r="8.1" class="st6"/></g></g></g></svg>