<svg xmlns="http://www.w3.org/2000/svg" xmlns:xlink="http://www.w3.org/1999/xlink" x="0" y="0" version="1.1" viewBox="0 0 120 107.1" xml:space="preserve" style="enable-background:new 0 0 120 107.1"><style type="text/css">.st3{fill:#1b3663}.st4{fill:#00b1d1}.st5{fill:#bfe6ef}.st6{fill:#69cbe0}.st7{fill:#0080bd}.st8{fill:#005dab}.st9{fill:#183660}.st10{fill:none;stroke:#183660;stroke-width:1.9441;stroke-miterlimit:10}</style><g id="Layer_1"><g><g><g><line x1="29.2" x2="52.1" y1="24.1" y2="42.8" class="st10"/><g><polygon points="27.7 27.8 24.9 20.5 32.6 21.8" class="st9"/></g></g></g><circle cx="16.1" cy="12.2" r="12.1" class="st5"/><g><g><line x1="52.1" x2="74.1" y1="42.1" y2="80" class="st10"/><g><polygon points="70.1 80.9 76.9 84.8 76.8 77.1" class="st9"/></g></g></g><g><g><line x1="69.4" x2="95.8" y1="46.7" y2="52.4" class="st10"/><g><polygon points="69.7 50.7 63.9 45.6 71.3 43.2" class="st9"/></g></g></g><g><g><line x1="52.1" x2="71.9" y1="42.8" y2="30.1" class="st10"/><g><polygon points="73.1 34 76.6 27.1 68.9 27.5" class="st9"/></g></g></g><g><g><line x1="16.8" x2="34.8" y1="49.6" y2="46.5" class="st10"/><g><polygon points="34.3 50.5 40.3 45.6 33 42.9" class="st9"/></g></g></g><g><g><line x1="92.3" x2="107.8" y1="79.5" y2="54.2" class="st10"/><g><polygon points="96.1 80.6 89.3 84.3 89.5 76.5" class="st9"/></g></g></g><g><g><line x1="97.3" x2="107.8" y1="36.5" y2="54.2" class="st10"/><g><polygon points="94.6 39.4 94.5 31.7 101.2 35.5" class="st9"/></g></g></g><circle cx="52.1" cy="42.8" r="12.1" class="st3"/><circle cx="12.2" cy="50.8" r="12.1" class="st4"/><circle cx="87.5" cy="21.7" r="12.1" class="st7"/><circle cx="83.5" cy="95" r="12.1" class="st8"/><circle cx="107.8" cy="54.2" r="12.1" class="st6"/></g></g></svg>